<svg xmlns="http://www.w3.org/2000/svg" viewBox="0 0 1218 416" width="1218" height="416" role="img"><path d="M 72.5 82.0 L 128.0 82.0 C 139.8 127.7 190.2 127.7 202.0 82.0 L 257.5 82.0 L 257.5 333.0 Q 257.5 340.0 250.5 340.0 L 79.5 340.0 Q 72.5 340.0 72.5 333.0 Z" fill="none" stroke="#0A0A0A" stroke-width="2.0" stroke-linejoin="round"/><text x="165.0" y="374.0" text-anchor="middle" font-family="IBM Plex Mono, ui-monospace, SFMono-Regular, monospace" font-size="14" font-weight="500" fill="#0A0A0A">Carry bag — W-cut</text><text x="165.0" y="395.0" text-anchor="middle" font-family="IBM Plex Mono, ui-monospace, SFMono-Regular, monospace" font-size="12" fill="#737373">vest handle</text><rect x="368.5" y="82.0" width="185.0" height="258.0" rx="7" fill="none" stroke="#0A0A0A" stroke-width="2"/><rect x="429.6" y="104.0" width="62.9" height="15.0" rx="7.5" fill="none" stroke="#0A0A0A" stroke-width="2"/><line x1="368.5" y1="134.0" x2="553.5" y2="134.0" stroke="#C2C2C2" stroke-width="1.2"/><text x="461.0" y="374.0" text-anchor="middle" font-family="IBM Plex Mono, ui-monospace, SFMono-Regular, monospace" font-size="14" font-weight="500" fill="#0A0A0A">Carry bag — D-cut</text><text x="461.0" y="395.0" text-anchor="middle" font-family="IBM Plex Mono, ui-monospace, SFMono-Regular, monospace" font-size="12" fill="#737373">punched handle</text><rect x="664.5" y="130.0" width="185.0" height="210.0" rx="5" fill="none" stroke="#0A0A0A" stroke-width="2"/><line x1="672.5" y1="150.0" x2="841.5" y2="150.0" stroke="#C2C2C2" stroke-width="1.4" stroke-dasharray="6 5"/><text x="757.0" y="374.0" text-anchor="middle" font-family="IBM Plex Mono, ui-monospace, SFMono-Regular, monospace" font-size="14" font-weight="500" fill="#0A0A0A">Food pouch</text><text x="757.0" y="395.0" text-anchor="middle" font-family="IBM Plex Mono, ui-monospace, SFMono-Regular, monospace" font-size="12" fill="#737373">flat, sealed</text><path d="M 954.5 70.0 L 1151.5 70.0 L 1145.5 332.0 Q 1145.5 340.0 1135.5 340.0 L 970.5 340.0 Q 960.5 340.0 960.5 332.0 Z" fill="none" stroke="#0A0A0A" stroke-width="2" stroke-linejoin="round"/><line x1="957.5" y1="87.0" x2="1148.5" y2="87.0" stroke="#C2C2C2" stroke-width="1.2"/><text x="1053.0" y="374.0" text-anchor="middle" font-family="IBM Plex Mono, ui-monospace, SFMono-Regular, monospace" font-size="14" font-weight="500" fill="#0A0A0A">Garbage bag</text><text x="1053.0" y="395.0" text-anchor="middle" font-family="IBM Plex Mono, ui-monospace, SFMono-Regular, monospace" font-size="12" fill="#737373">bin liner</text></svg>